<?xml version="1.0" standalone="no"?>
<!DOCTYPE svg PUBLIC "-//W3C//DTD SVG 20010904//EN"
 "http://www.w3.org/TR/2001/REC-SVG-20010904/DTD/svg10.dtd">
<svg version="1.0" xmlns="http://www.w3.org/2000/svg"
 width="3166.000000pt" height="2106.000000pt" viewBox="0 0 3166.000000 2106.000000"
 preserveAspectRatio="xMidYMid meet">

<g transform="translate(0.000000,2106.000000) scale(0.100000,-0.100000)"
fill="#000000" stroke="none">
<path d="M27430 20560 c0 -5 14 -10 30 -10 24 0 30 -4 30 -20 0 -31 -100 -423
-111 -437 -6 -6 -25 -13 -42 -15 -18 -2 -30 -7 -27 -13 7 -14 203 -11 208 4 2
6 -8 11 -27 11 -46 0 -46 -6 0 171 l9 36 92 6 c51 3 109 12 128 20 101 43 143
123 105 196 -26 51 -65 61 -239 61 -97 0 -156 -4 -156 -10z m323 -41 c36 -44
5 -148 -53 -183 -33 -19 -190 -23 -190 -5 0 17 39 172 51 198 9 23 13 23 91
19 71 -4 84 -8 101 -29z"/>
<path d="M26970 16320 l0 -4130 -55 0 c-30 0 -55 -2 -55 -4 0 -2 16 -38 36
-81 20 -43 53 -129 73 -192 l38 -114 18 68 c21 78 64 192 100 263 14 27 25 52
25 55 0 3 -25 5 -55 5 l-55 0 0 4130 0 4130 -35 0 -35 0 0 -4130z"/>
<path d="M28003 20313 c-36 -5 -46 -23 -12 -23 15 0 19 -5 15 -17 -3 -10 -10
-40 -17 -68 -7 -27 -13 -51 -15 -53 -1 -2 -14 4 -28 13 -23 15 -27 15 -69 -3
-71 -31 -113 -120 -87 -182 21 -50 74 -65 118 -34 21 15 25 15 41 0 10 -9 30
-16 45 -16 22 0 30 7 42 36 8 20 13 41 11 47 -2 7 -11 -4 -20 -24 -18 -43 -31
-53 -45 -36 -8 9 1 61 32 184 40 157 44 186 27 181 -3 0 -21 -3 -38 -5z m-49
-175 c18 -30 -10 -138 -45 -170 -36 -34 -54 -35 -73 -5 -25 38 9 161 51 186
24 15 54 10 67 -11z"/>
<path d="M24498 19784 c-15 -15 -7 -24 20 -24 16 0 31 -2 34 -5 7 -8 -101
-436 -114 -452 -6 -7 -26 -13 -44 -13 -19 0 -34 -4 -34 -10 0 -6 43 -10 110
-10 67 0 110 4 110 10 0 6 -13 10 -29 10 -17 0 -32 4 -35 8 -2 4 7 54 21 110
l25 102 93 0 c82 0 99 3 146 28 117 61 135 176 36 229 -25 13 -65 18 -182 21
-82 2 -153 0 -157 -4z m306 -45 c19 -15 26 -29 26 -57 0 -53 -35 -117 -74
-136 -40 -19 -186 -23 -186 -5 0 17 39 171 50 197 9 20 16 22 83 22 60 0 79
-4 101 -21z"/>
<path d="M24030 15925 l0 -3735 -55 0 c-30 0 -55 -2 -55 -5 0 -3 11 -28 25
-55 36 -71 79 -185 100 -263 l18 -68 38 114 c20 63 53 149 73 192 20 43 36 79
36 81 0 2 -25 4 -55 4 l-55 0 0 3735 0 3735 -35 0 -35 0 0 -3735z"/>
<path d="M25045 19520 c-19 -9 -19 -9 3 -16 14 -4 21 -12 18 -23 -2 -9 -10
-39 -17 -68 -12 -51 -13 -51 -36 -36 -67 44 -186 -70 -169 -162 13 -68 77 -96
128 -56 24 19 24 19 37 0 25 -42 110 7 99 57 -3 15 -8 10 -21 -18 -19 -45 -47
-51 -47 -10 0 15 18 95 39 179 21 84 36 155 33 158 -8 7 -44 5 -67 -5z m-32
-170 c13 -18 13 -29 -1 -83 -18 -77 -45 -109 -87 -105 -27 3 -30 7 -33 40 -9
110 76 213 121 148z"/>
<path d="M21567 18994 c-12 -12 4 -24 34 -24 19 0 29 -5 29 -15 0 -17 -84
-358 -101 -412 -8 -25 -16 -33 -34 -33 -30 0 -55 -10 -55 -21 0 -5 50 -9 110
-9 109 0 145 12 75 26 -19 3 -35 9 -35 13 1 3 11 49 23 101 l22 95 100 6 c112
6 164 26 208 79 33 38 40 63 33 104 -14 74 -73 96 -259 96 -79 0 -147 -3 -150
-6z m320 -50 c22 -22 24 -31 19 -66 -16 -100 -55 -130 -178 -136 l-87 -4 20
78 c11 44 25 96 30 117 l10 37 80 0 c73 0 82 -2 106 -26z"/>
<path d="M21110 15536 l0 -3346 -59 0 -59 0 33 -67 c19 -38 53 -125 76 -196
l43 -127 22 78 c27 93 78 224 105 270 10 18 19 35 19 38 0 2 -25 4 -55 4 l-55
0 -2 3343 -3 3342 -32 3 -33 3 0 -3345z"/>
<path d="M22110 18731 c0 -5 9 -11 19 -14 18 -4 18 -7 3 -71 -13 -54 -19 -65
-31 -59 -9 4 -33 7 -53 7 -90 0 -166 -150 -108 -212 31 -33 64 -37 105 -13 19
11 35 16 35 11 0 -16 40 -32 61 -25 25 8 62 85 41 85 -4 0 -14 -16 -21 -35
-12 -34 -33 -46 -46 -26 -3 6 13 82 35 170 22 88 40 167 40 176 0 11 -11 15
-40 15 -22 0 -40 -4 -40 -9z m-19 -167 c20 -24 -5 -131 -39 -166 -57 -61 -103
-22 -82 69 20 90 84 142 121 97z"/>
<path d="M18628 18013 c-29 -7 -21 -23 11 -23 17 0 32 -4 36 -9 5 -10 -87
-396 -105 -438 -7 -18 -18 -23 -45 -23 -19 0 -35 -4 -35 -10 0 -6 44 -10 111
-10 71 0 108 4 104 10 -3 6 -19 10 -36 10 -35 0 -35 1 -8 116 l22 91 92 6
c103 6 145 20 198 67 93 81 57 190 -70 211 -51 8 -246 10 -275 2z m291 -38
c33 -17 43 -46 32 -95 -21 -93 -62 -120 -179 -120 -75 0 -83 2 -78 18 3 9 14
55 26 102 11 47 23 91 25 98 6 18 138 16 174 -3z"/>
<path d="M18150 15040 l0 -2850 -55 0 -55 0 29 -57 c36 -73 97 -236 106 -285
7 -38 25 -53 25 -22 0 30 68 221 105 293 l35 71 -60 0 -60 0 0 2850 0 2850
-35 0 -35 0 0 -2850z"/>
<path d="M19175 17750 c-29 -8 -29 -8 -7 -15 26 -8 26 -17 1 -107 -10 -37 -10
-38 -34 -22 -42 28 -118 -13 -154 -83 -20 -39 -14 -107 12 -131 27 -26 73 -29
105 -6 20 14 24 14 38 -1 27 -26 67 -15 86 24 9 19 14 39 10 45 -3 6 -13 -6
-20 -26 -16 -40 -39 -56 -49 -33 -3 9 13 90 36 180 22 91 41 169 41 175 0 11
-21 11 -65 0z m-34 -171 c11 -22 2 -79 -23 -142 -9 -23 -52 -57 -72 -57 -14 0
-36 35 -36 58 0 108 94 209 131 141z"/>
<path d="M15678 17224 c-13 -12 2 -24 33 -24 17 0 29 -5 29 -12 -1 -38 -110
-442 -122 -449 -7 -5 -25 -9 -40 -9 -16 0 -28 -4 -28 -10 0 -6 43 -10 110 -10
67 0 110 4 110 10 0 6 -14 10 -30 10 -17 0 -33 6 -36 13 -3 8 6 56 19 108 l23
94 100 5 c75 4 109 11 140 27 83 44 121 121 90 182 -29 55 -63 65 -236 69 -85
2 -158 0 -162 -4z m313 -43 c19 -15 24 -28 23 -64 -2 -99 -62 -147 -187 -147
-70 0 -78 2 -73 18 3 9 12 46 21 82 9 36 21 80 26 98 l11 32 78 0 c62 0 83 -4
101 -19z"/>
<path d="M15220 14645 l0 -2455 -60 0 -60 0 35 -71 c37 -72 105 -263 105 -293
0 -38 17 -10 37 64 12 44 45 129 72 190 l49 110 -54 0 -54 0 0 2455 0 2455
-35 0 -35 0 0 -2455z"/>
<path d="M30366 17021 c-7 -10 17 -21 45 -21 10 0 19 -7 19 -15 0 -17 -84
-358 -101 -412 -9 -27 -16 -32 -46 -35 -20 -2 -38 -9 -41 -16 -3 -10 20 -12
105 -10 63 2 108 7 108 13 0 6 -15 11 -32 13 -18 2 -33 6 -33 9 0 5 17 73 41
164 l9 37 99 4 c88 3 104 7 147 34 27 16 59 45 72 64 44 65 11 148 -67 170
-45 12 -318 13 -325 1z m324 -46 c19 -20 22 -31 16 -67 -16 -97 -73 -138 -195
-138 l-69 0 20 78 c10 42 24 94 29 115 l10 37 83 0 c75 0 85 -2 106 -25z"/>
<path d="M16220 16960 c-12 -8 -11 -11 8 -16 26 -7 26 -16 1 -107 -10 -37 -11
-38 -29 -22 -27 25 -79 13 -117 -28 -42 -44 -53 -69 -53 -117 0 -74 66 -113
126 -74 23 15 26 15 43 0 37 -34 77 -13 96 52 11 36 -10 25 -24 -13 -13 -36
-51 -51 -51 -20 0 9 18 87 40 175 22 88 40 164 40 170 0 13 -60 13 -80 0z
m-17 -170 c15 -24 -10 -125 -40 -161 -28 -33 -68 -37 -86 -8 -16 25 9 123 40
160 28 33 68 37 86 9z"/>
<path d="M29910 14550 l0 -2360 -59 0 -59 0 38 -77 c39 -79 80 -191 101 -273
l11 -45 24 84 c26 89 86 241 110 278 8 12 14 25 14 28 0 3 -25 5 -55 5 l-55 0
0 2360 0 2360 -35 0 -35 0 0 -2360z"/>
<path d="M30910 16761 c0 -5 9 -11 19 -14 19 -5 19 -7 4 -68 -19 -75 -20 -76
-35 -61 -36 36 -125 -5 -157 -72 -36 -73 -21 -135 36 -157 20 -7 35 -5 64 11
22 11 39 15 39 10 0 -16 39 -32 61 -25 25 8 62 85 41 85 -4 0 -14 -16 -21 -35
-12 -34 -33 -46 -46 -26 -3 6 13 82 35 170 22 88 40 167 40 176 0 11 -11 15
-40 15 -22 0 -40 -4 -40 -9z m-13 -178 c11 -27 -18 -127 -45 -155 -50 -53
-101 -24 -87 51 10 54 43 117 68 128 25 12 55 1 64 -24z"/>
<path d="M12742 16044 c-20 -9 -3 -24 29 -24 19 0 29 -5 29 -15 0 -27 -103
-430 -113 -442 -5 -7 -25 -13 -43 -13 -19 0 -34 -4 -34 -10 0 -6 43 -10 110
-10 67 0 110 4 110 10 0 6 -13 10 -29 10 -48 0 -48 -1 0 183 l10 37 82 0 c108
0 150 13 203 62 52 48 65 93 41 144 -28 57 -62 67 -232 71 -82 1 -156 0 -163
-3z m315 -50 c21 -21 25 -32 20 -64 -7 -55 -28 -91 -66 -117 -29 -19 -47 -23
-116 -23 l-83 0 20 78 c10 42 24 94 29 115 l10 37 80 0 c73 0 82 -2 106 -26z"/>
<path d="M12280 14055 l0 -1865 -59 0 -59 0 38 -77 c39 -79 80 -191 101 -273
l11 -45 24 84 c26 89 86 241 110 278 8 12 14 25 14 28 0 3 -25 5 -55 5 l-55 0
0 1865 0 1865 -35 0 -35 0 0 -1865z"/>
<path d="M13298 15783 c-24 -6 -23 -23 1 -23 18 0 18 -3 5 -57 -23 -90 -22
-88 -44 -68 -37 34 -128 -13 -156 -82 -43 -101 34 -193 114 -137 21 15 25 15
41 0 29 -26 59 -20 81 17 21 34 26 57 11 57 -5 0 -12 -14 -16 -31 -4 -17 -14
-33 -22 -36 -35 -13 -34 16 7 175 22 89 40 168 40 177 0 15 -24 18 -62 8z
m-37 -169 c10 -13 10 -27 0 -77 -7 -34 -19 -72 -27 -84 -27 -42 -94 -41 -102
1 -5 25 26 120 49 149 23 30 60 35 80 11z"/>
<path d="M6873 14864 c-23 -10 -14 -24 15 -24 16 0 31 -2 34 -5 8 -8 -98 -433
-112 -450 -7 -8 -25 -15 -41 -15 -15 0 -31 -4 -34 -10 -4 -6 33 -10 104 -10
67 0 111 4 111 10 0 6 -13 10 -29 10 -46 0 -46 -6 0 171 l9 36 87 6 c49 3 104
11 123 18 141 48 178 197 61 247 -36 15 -301 28 -328 16z m301 -45 c32 -25 35
-74 7 -135 -25 -55 -67 -74 -165 -74 -42 0 -76 3 -76 6 0 11 51 208 56 216 3
4 38 8 78 8 59 0 78 -4 100 -21z"/>
<path d="M9813 14864 c-23 -10 -13 -24 17 -24 24 0 30 -4 30 -20 0 -32 -100
-423 -112 -437 -6 -7 -26 -13 -44 -13 -19 0 -34 -4 -34 -10 0 -6 43 -10 110
-10 67 0 110 4 110 10 0 6 -13 10 -29 10 -46 0 -46 -6 0 171 l9 36 89 6 c114
7 182 35 222 90 48 67 32 139 -38 172 -30 15 -68 19 -178 22 -77 1 -146 0
-152 -3z m304 -50 c22 -22 25 -31 19 -71 -8 -59 -33 -99 -72 -118 -38 -18
-184 -21 -184 -4 0 17 39 171 50 197 9 20 16 22 85 22 68 0 79 -3 102 -26z"/>
<path d="M6400 13465 l0 -1275 -55 0 c-30 0 -55 -2 -55 -5 0 -3 11 -28 25 -55
36 -71 79 -185 100 -263 l18 -68 38 114 c20 63 53 149 73 192 20 43 36 79 36
81 0 2 -25 4 -55 4 l-55 0 0 1275 0 1275 -35 0 -35 0 0 -1275z"/>
<path d="M9340 13465 l0 -1275 -55 0 c-30 0 -55 -2 -55 -4 0 -2 16 -38 36 -81
20 -43 53 -129 73 -192 l38 -114 18 68 c21 78 64 192 100 263 14 27 25 52 25
55 0 3 -25 5 -55 5 l-55 0 0 1275 0 1275 -35 0 -35 0 0 -1275z"/>
<path d="M7423 14603 c-28 -5 -30 -23 -3 -23 24 0 24 4 4 -74 l-16 -64 -29 15
c-101 50 -220 -139 -137 -217 26 -24 58 -25 97 -5 26 13 30 13 41 0 28 -34 83
-10 96 41 10 40 -2 38 -22 -2 -20 -40 -37 -46 -42 -16 -2 10 15 90 37 177 22
88 38 163 35 167 -5 8 -22 8 -61 1z m-40 -171 c15 -16 15 -24 1 -82 -15 -66
-34 -97 -69 -110 -33 -13 -55 6 -55 48 0 114 73 199 123 144z"/>
<path d="M10363 14603 c-29 -6 -30 -23 -2 -23 13 0 19 -5 16 -12 -2 -7 -10
-39 -17 -70 l-13 -57 -28 15 c-37 19 -71 10 -113 -30 -38 -35 -62 -101 -52
-140 15 -60 76 -84 124 -50 21 15 25 15 41 0 37 -34 82 -11 97 49 8 36 -2 29
-24 -17 -10 -18 -21 -33 -27 -33 -21 0 -15 57 23 208 22 86 37 159 34 162 -6
5 -23 5 -59 -2z m-40 -173 c13 -18 13 -29 -1 -83 -16 -68 -34 -94 -71 -109
-53 -20 -71 52 -35 141 26 67 79 91 107 51z"/>
<path d="M3927 12893 c-15 -15 -5 -23 28 -23 19 0 35 -2 35 -5 0 -28 -114
-451 -123 -457 -7 -4 -24 -8 -39 -8 -16 0 -28 -4 -28 -10 0 -6 42 -10 105 -10
63 0 105 4 105 10 0 6 -13 10 -30 10 -37 0 -37 6 -8 128 l22 92 90 0 c124 1
196 33 233 104 37 72 2 144 -82 165 -47 12 -297 15 -308 4z m319 -47 c36 -50
1 -161 -60 -190 -32 -15 -186 -24 -186 -10 0 11 52 209 57 217 3 5 43 7 90 5
70 -2 87 -6 99 -22z"/>
<path d="M3460 12480 l0 -290 -55 0 c-30 0 -55 -2 -55 -5 0 -3 6 -16 14 -28
24 -37 84 -189 110 -278 l24 -84 11 45 c21 82 62 194 101 273 l38 77 -59 0
-59 0 0 290 0 290 -35 0 -35 0 0 -290z"/>
<path d="M4470 12630 c-13 -8 -11 -11 8 -16 26 -8 26 0 6 -79 -16 -63 -17 -64
-37 -50 -27 19 -41 19 -84 -2 -78 -36 -113 -155 -63 -208 27 -29 58 -32 101
-10 27 14 31 14 45 0 36 -36 95 3 94 62 -1 11 -7 5 -18 -17 -20 -41 -52 -53
-52 -20 0 11 18 92 40 180 22 88 40 162 40 165 0 9 -64 5 -80 -5z m-20 -170
c8 -15 6 -36 -6 -82 -19 -78 -47 -110 -89 -106 -26 3 -30 7 -33 37 -5 48 16
116 44 146 28 30 69 33 84 5z"/>
<path d="M16358 11423 c-14 -17 -38 -76 -38 -94 0 -25 17 -3 33 41 13 37 23
50 38 50 11 0 22 -7 25 -15 4 -8 -16 -103 -42 -211 -47 -187 -50 -197 -76
-206 -50 -18 -30 -28 53 -28 60 0 80 3 77 13 -3 6 -14 13 -26 15 -26 4 -26 5
-6 87 l16 65 26 -20 c70 -56 185 24 218 152 33 127 -61 213 -155 143 l-34 -24
-19 24 c-23 30 -68 33 -90 8z m242 -22 c16 -30 12 -82 -11 -157 -35 -114 -104
-157 -150 -94 -18 24 -18 27 6 120 19 77 30 100 55 123 36 33 84 36 100 8z"/>
<path d="M16908 11363 c-25 -6 -22 -23 3 -23 13 0 19 -5 16 -12 -2 -7 -10 -39
-17 -70 -13 -56 -13 -56 -36 -41 -46 30 -118 -7 -154 -78 -24 -46 -25 -80 -5
-118 22 -44 71 -55 113 -25 21 15 25 15 41 0 36 -33 82 -11 96 47 10 38 -9 34
-20 -5 -10 -34 -39 -49 -48 -26 -2 8 13 83 34 168 21 85 38 163 39 173 0 17
-22 21 -62 10z m-34 -175 c17 -28 -9 -138 -40 -165 -31 -28 -70 -30 -84 -3
-17 32 10 129 48 173 19 22 61 19 76 -5z"/>
<path d="M3353 10815 c-20 -19 -23 -32 -23 -109 l0 -86 -55 0 c-30 0 -55 -2
-55 -4 0 -2 17 -41 39 -87 37 -80 91 -237 106 -306 l7 -33 13283 0 13284 0 11
58 c14 68 71 225 111 304 16 32 29 60 29 63 0 3 -25 5 -55 5 l-55 0 0 91 c0
82 -2 91 -20 96 -11 3 -20 12 -20 19 0 12 -1980 14 -13282 13 l-13283 -1 -22
-23z m1307 -120 l0 -75 -55 0 c-30 0 -55 -4 -55 -9 0 -4 17 -46 39 -92 31 -69
57 -139 96 -266 4 -10 -132 -13 -655 -13 -523 0 -659 3 -655 13 2 6 15 50 30
97 15 47 44 123 66 169 21 46 39 88 39 92 0 5 -25 9 -55 9 l-55 0 0 75 0 75
630 0 630 0 0 -75z m1320 0 l0 -75 -55 0 c-30 0 -55 -2 -55 -4 0 -1 20 -45 44
-97 39 -83 96 -244 96 -270 0 -5 -249 -9 -656 -9 l-656 0 7 33 c10 48 73 214
106 279 16 32 29 60 29 63 0 3 -25 5 -55 5 l-55 0 0 75 0 75 625 0 625 0 0
-75z m1330 0 l0 -75 -55 0 c-59 0 -66 -9 -42 -45 24 -35 85 -188 106 -263 l20
-72 -655 0 c-593 0 -654 1 -654 16 0 26 57 190 95 271 19 42 35 80 35 84 0 5
-25 9 -55 9 l-55 0 0 75 0 75 630 0 630 0 0 -75z m1320 0 l0 -75 -50 0 c-27 0
-50 -4 -50 -9 0 -5 16 -44 36 -87 37 -81 94 -245 94 -270 0 -12 -98 -14 -655
-14 l-655 0 6 28 c13 53 66 198 100 271 19 41 34 75 34 77 0 2 -25 4 -55 4
l-55 0 0 75 0 75 625 0 625 0 0 -75z m1330 0 l0 -75 -55 0 c-30 0 -55 -2 -55
-4 0 -2 17 -41 39 -87 31 -68 101 -264 101 -284 0 -3 -295 -5 -655 -5 -478 0
-655 3 -655 11 0 23 70 220 103 288 18 39 31 73 29 76 -3 3 -27 5 -54 5 l-48
0 0 75 0 75 625 0 625 0 0 -75z m1330 0 l0 -75 -55 0 c-30 0 -55 -4 -55 -9 0
-4 16 -44 37 -87 20 -43 51 -124 69 -179 l33 -100 -330 -3 c-181 -1 -477 -1
-659 0 l-329 3 39 116 c21 65 52 144 69 178 17 33 31 65 31 71 0 6 -24 10 -55
10 l-55 0 0 75 0 75 630 0 630 0 0 -75z m1320 0 l0 -75 -55 0 c-30 0 -55 -2
-55 -4 0 -1 20 -45 44 -97 39 -83 96 -244 96 -270 0 -5 -249 -9 -656 -9 l-656
0 7 33 c10 48 73 214 106 279 16 32 29 60 29 63 0 3 -25 5 -55 5 l-55 0 0 75
0 75 625 0 625 0 0 -75z m1330 0 l0 -75 -55 0 c-54 0 -69 -12 -46 -36 14 -13
86 -190 106 -259 10 -33 20 -66 22 -72 4 -10 -130 -13 -651 -13 -595 0 -656 1
-656 16 0 26 57 190 95 271 19 42 35 80 35 84 0 5 -25 9 -55 9 l-55 0 0 75 0
75 630 0 630 0 0 -75z m1330 0 l0 -75 -55 0 c-30 0 -55 -4 -55 -9 0 -5 16 -44
36 -87 37 -81 94 -245 94 -270 0 -12 -98 -14 -655 -14 l-655 0 6 28 c13 53 66
198 100 271 19 41 34 75 34 77 0 2 -25 4 -55 4 l-55 0 0 75 0 75 630 0 630 0
0 -75z m1320 0 l0 -75 -55 0 c-30 0 -55 -2 -55 -5 0 -3 13 -32 29 -63 28 -55
90 -225 105 -284 l6 -28 -655 0 c-478 0 -655 3 -655 11 0 25 71 222 104 289
20 40 36 74 36 76 0 2 -25 4 -55 4 l-55 0 0 75 0 75 625 0 625 0 0 -75z m1330
0 l0 -75 -55 0 c-31 0 -55 -4 -55 -10 0 -6 14 -38 31 -71 17 -34 48 -113 69
-178 l39 -116 -329 -3 c-182 -1 -478 -1 -660 0 l-329 3 39 116 c21 65 52 144
69 178 17 33 31 65 31 71 0 6 -24 10 -55 10 l-55 0 0 75 0 75 630 0 630 0 0
-75z m1320 0 l0 -75 -55 0 c-30 0 -55 -2 -55 -4 0 -2 16 -36 36 -76 33 -67
104 -264 104 -289 0 -8 -177 -11 -655 -11 l-655 0 6 28 c15 59 77 229 105 284
16 31 29 60 29 63 0 3 -25 5 -55 5 l-55 0 0 75 0 75 625 0 625 0 0 -75z m1330
0 l0 -75 -55 0 c-30 0 -55 -3 -55 -6 0 -3 15 -38 34 -77 33 -69 86 -212 100
-269 l6 -28 -655 0 c-594 0 -655 1 -655 16 0 26 55 182 94 268 20 43 36 82 36
87 0 5 -25 9 -55 9 l-55 0 0 75 0 75 630 0 630 0 0 -75z m1330 0 l0 -75 -55 0
c-30 0 -55 -4 -55 -9 0 -5 16 -44 36 -87 39 -86 94 -242 94 -268 0 -15 -61
-16 -655 -16 l-655 0 6 28 c14 57 67 200 100 269 19 39 34 74 34 77 0 3 -25 6
-55 6 l-55 0 0 75 0 75 630 0 630 0 0 -75z m1320 0 l0 -75 -55 0 c-30 0 -55
-2 -55 -5 0 -3 13 -32 29 -63 28 -55 90 -225 105 -284 l6 -28 -655 0 c-478 0
-655 3 -655 11 0 26 71 222 104 288 20 39 36 73 36 76 0 3 -25 5 -55 5 l-55 0
0 75 0 75 625 0 625 0 0 -75z m1330 0 l0 -75 -55 0 c-31 0 -55 -4 -55 -10 0
-6 14 -38 31 -71 17 -34 48 -113 69 -178 l39 -116 -329 -3 c-182 -1 -478 -1
-659 0 l-330 3 33 100 c18 55 49 136 69 179 21 43 37 83 37 87 0 5 -25 9 -55
9 l-55 0 0 75 0 75 630 0 630 0 0 -75z m1320 0 l0 -75 -55 0 c-30 0 -55 -2
-55 -4 0 -2 16 -36 36 -76 33 -67 104 -264 104 -289 0 -8 -177 -11 -655 -11
-360 0 -655 2 -655 5 0 20 70 216 101 284 22 46 39 85 39 87 0 2 -25 4 -55 4
l-55 0 0 75 0 75 625 0 625 0 0 -75z m1330 0 l0 -75 -55 0 c-30 0 -55 -2 -55
-4 0 -2 15 -36 34 -77 34 -73 87 -218 100 -271 l6 -28 -655 0 c-557 0 -655 2
-655 14 0 25 57 189 94 270 20 43 36 82 36 87 0 5 -25 9 -55 9 l-55 0 0 75 0
75 630 0 630 0 0 -75z m1330 0 l0 -75 -55 0 c-30 0 -55 -4 -55 -9 0 -4 16 -42
35 -84 38 -81 95 -245 95 -271 0 -15 -61 -16 -654 -16 l-655 0 20 70 c21 76
94 259 110 275 23 23 8 35 -46 35 l-55 0 0 75 0 75 630 0 630 0 0 -75z m1380
0 l0 -75 -55 0 c-30 0 -55 -4 -55 -9 0 -4 16 -44 37 -87 20 -43 51 -124 69
-179 l33 -100 -681 -3 c-375 -1 -683 0 -686 3 -9 8 50 180 94 274 24 52 44 96
44 97 0 2 -25 4 -55 4 l-55 0 0 75 0 75 655 0 655 0 0 -75z"/>
<path d="M3370 9666 c0 -8 -7 -16 -15 -20 -20 -7 -18 -26 4 -53 19 -23 21 -23
302 -23 l282 0 -20 -22 c-34 -38 -46 -69 -46 -123 0 -72 34 -129 96 -161 l27
-15 0 -4318 0 -4319 -25 -6 c-39 -10 -101 -72 -122 -121 l-18 -45 -185 -2
-185 -3 -3 -32 -3 -33 189 0 189 0 12 -40 c6 -21 24 -53 38 -71 34 -40 116
-79 168 -79 45 0 118 30 153 63 27 25 62 88 62 112 0 13 26 15 191 15 l190 0
-3 32 -3 33 -186 3 -187 2 -7 27 c-3 15 -15 39 -26 54 -16 22 -19 44 -19 128
l0 101 -25 0 c-25 0 -25 -1 -25 -79 l0 -79 -30 11 -30 11 0 712 0 712 33 79
c26 59 39 79 55 81 19 3 22 10 22 47 0 64 7 75 49 75 140 1 216 189 119 296
-19 21 -11 38 1404 3308 1009 2332 1427 3286 1438 3286 106 0 202 109 186 210
-6 36 -4 40 14 40 15 0 20 7 20 24 0 22 -5 25 -42 28 -38 3 -43 6 -43 28 l0
25 8558 3 8559 2 -24 -29 c-22 -29 -26 -30 -110 -30 -87 -1 -88 -1 -88 -26 0
-25 2 -25 78 -25 l77 0 1 -32 c1 -18 5 -60 10 -93 9 -58 10 -60 39 -61 17 0
40 -6 53 -12 l22 -13 0 -4317 0 -4318 -30 -11 -29 -11 -3 87 c-3 78 -5 86 -23
86 -19 0 -20 -8 -23 -109 -2 -88 -6 -114 -22 -136 -10 -14 -22 -38 -25 -53
l-7 -27 -187 -2 -186 -3 -3 -33 -3 -32 190 0 c165 0 191 -2 191 -15 0 -24 35
-87 62 -112 35 -33 108 -63 153 -63 52 0 134 39 168 79 14 18 32 50 38 71 l12
40 189 0 189 0 -3 32 -3 33 -185 3 -185 2 -18 45 c-21 49 -83 111 -122 121
l-25 6 0 4319 0 4318 23 12 c61 32 98 88 100 155 l2 44 53 0 c49 0 52 2 52 25
0 24 -3 25 -62 26 -57 0 -65 3 -86 30 l-24 29 2677 0 2677 0 19 23 c22 27 24
46 4 53 -8 4 -15 12 -15 20 0 12 -1946 14 -13350 14 -11404 0 -13350 -2
-13350 -14z m3770 -118 c-72 -50 -100 -123 -75 -203 7 -26 23 -57 34 -69 l21
-22 -1422 -3287 c-1391 -3213 -1424 -3287 -1450 -3287 -27 0 -27 1 -30 73 -3
66 -5 72 -25 75 -22 3 -23 1 -23 -81 0 -80 -1 -85 -30 -110 l-30 -27 0 3320 0
3319 30 16 c17 9 30 11 30 5 0 -5 11 -10 25 -10 23 0 25 4 25 41 0 22 5 59 11
83 13 53 -1 112 -37 156 l-26 30 1503 0 1502 0 -33 -22z m-3010 -16 c69 -51
76 -138 16 -198 -43 -43 -93 -52 -142 -28 -53 26 -79 66 -79 119 0 105 121
168 205 107z m20540 0 c39 -28 63 -86 55 -129 -9 -48 -60 -99 -108 -108 -105
-20 -194 108 -135 195 46 68 127 86 188 42z m-17363 -27 c33 -22 63 -74 63
-111 0 -71 -86 -143 -155 -130 -45 9 -91 48 -105 91 -38 115 95 217 197 150z
m-2997 -6890 c128 -66 84 -245 -60 -245 -56 0 -95 26 -116 76 -19 45 -18 73 4
113 33 62 111 87 172 56z m-188 -282 c-10 -28 -10 -28 -11 12 -1 28 2 36 10
28 8 -8 8 -19 1 -40z m17 -1784 c74 -41 107 -131 77 -204 -21 -50 -42 -72 -88
-96 -152 -78 -309 104 -215 248 47 70 151 95 226 52z m20540 1 c119 -68 114
-237 -10 -300 -153 -79 -314 105 -216 247 48 70 151 95 226 53z"/>
<path d="M4337 9503 c-4 -3 -7 -15 -7 -25 0 -16 10 -18 105 -18 l105 0 0 25
c0 25 0 25 -98 25 -54 0 -102 -3 -105 -7z"/>
<path d="M4750 9485 l0 -25 105 0 105 0 0 25 0 25 -105 0 -105 0 0 -25z"/>
<path d="M5167 9503 c-4 -3 -7 -15 -7 -25 0 -16 10 -18 105 -18 l105 0 0 25
c0 25 0 25 -98 25 -54 0 -102 -3 -105 -7z"/>
<path d="M5580 9485 l0 -25 105 0 105 0 0 25 0 25 -105 0 -105 0 0 -25z"/>
<path d="M6000 9485 l0 -25 100 0 100 0 0 25 0 25 -100 0 -100 0 0 -25z"/>
<path d="M6410 9485 l0 -25 105 0 105 0 0 25 0 25 -105 0 -105 0 0 -25z"/>
<path d="M6830 9485 l0 -25 100 0 100 0 0 25 0 25 -100 0 -100 0 0 -25z"/>
<path d="M4170 8944 c0 -104 0 -105 23 -102 21 3 22 8 25 106 l3 102 -26 0
-25 0 0 -106z"/>
<path d="M4170 8535 l0 -105 25 0 25 0 0 105 0 105 -25 0 -25 0 0 -105z"/>
<path d="M4170 8114 c0 -104 0 -105 23 -102 21 3 22 8 25 106 l3 102 -26 0
-25 0 0 -106z"/>
<path d="M4170 7705 l0 -105 25 0 25 0 0 105 0 105 -25 0 -25 0 0 -105z"/>
<path d="M4170 7284 c0 -104 0 -105 23 -102 21 3 22 8 25 106 l3 102 -26 0
-25 0 0 -106z"/>
<path d="M4170 6875 l0 -105 25 0 25 0 0 105 0 105 -25 0 -25 0 0 -105z"/>
<path d="M4170 6454 c0 -104 0 -105 23 -102 21 3 22 8 25 106 l3 102 -26 0
-25 0 0 -106z"/>
<path d="M4170 6045 l0 -105 25 0 25 0 0 105 0 105 -25 0 -25 0 0 -105z"/>
<path d="M4170 5625 l0 -105 25 0 25 0 0 105 0 105 -25 0 -25 0 0 -105z"/>
<path d="M4170 5216 l0 -106 25 0 26 0 -3 103 c-3 97 -4 102 -25 105 -23 3
-23 2 -23 -102z"/>
<path d="M4170 4795 l0 -105 25 0 25 0 0 105 0 105 -25 0 -25 0 0 -105z"/>
<path d="M4170 4386 l0 -106 25 0 26 0 -3 103 c-3 97 -4 102 -25 105 -23 3
-23 2 -23 -102z"/>
<path d="M4170 3965 l0 -105 25 0 25 0 0 105 0 105 -25 0 -25 0 0 -105z"/>
<path d="M4170 3556 l0 -106 25 0 26 0 -3 103 c-3 97 -4 102 -25 105 -23 3
-23 2 -23 -102z"/>
<path d="M4170 3135 l0 -105 25 0 25 0 0 105 0 105 -25 0 -25 0 0 -105z"/>
<path d="M3507 9503 c-4 -3 -7 -15 -7 -25 0 -16 10 -18 105 -18 l105 0 0 25
c0 25 0 25 -98 25 -54 0 -102 -3 -105 -7z"/>
<path d="M7660 9485 l0 -25 100 0 100 0 0 25 0 25 -100 0 -100 0 0 -25z"/>
<path d="M8070 9485 l0 -25 105 0 105 0 0 25 0 25 -105 0 -105 0 0 -25z"/>
<path d="M8490 9485 l0 -25 100 0 100 0 0 25 0 25 -100 0 -100 0 0 -25z"/>
<path d="M8900 9485 l0 -25 105 0 105 0 0 25 0 25 -105 0 -105 0 0 -25z"/>
<path d="M9320 9485 l0 -25 100 0 100 0 0 25 0 25 -100 0 -100 0 0 -25z"/>
<path d="M9730 9485 l0 -25 105 0 105 0 0 25 0 25 -105 0 -105 0 0 -25z"/>
<path d="M10150 9485 l0 -25 106 0 c104 0 105 0 102 23 -3 21 -8 22 -105 25
l-103 3 0 -26z"/>
<path d="M10560 9485 l0 -25 105 0 105 0 0 25 0 25 -105 0 -105 0 0 -25z"/>
<path d="M10980 9485 l0 -25 106 0 c104 0 105 0 102 23 -3 21 -8 22 -105 25
l-103 3 0 -26z"/>
<path d="M11390 9485 l0 -25 105 0 105 0 0 25 0 25 -105 0 -105 0 0 -25z"/>
<path d="M11810 9485 l0 -25 106 0 c104 0 105 0 102 23 -3 21 -8 22 -105 25
l-103 3 0 -26z"/>
<path d="M12220 9485 l0 -25 105 0 105 0 0 25 0 25 -105 0 -105 0 0 -25z"/>
<path d="M12640 9485 l0 -25 106 0 c104 0 105 0 102 23 -3 21 -8 22 -105 25
l-103 3 0 -26z"/>
<path d="M13050 9485 l0 -25 105 0 105 0 0 25 0 25 -105 0 -105 0 0 -25z"/>
<path d="M13470 9485 l0 -25 106 0 c104 0 105 0 102 23 -3 21 -8 22 -105 25
l-103 3 0 -26z"/>
<path d="M13880 9485 l0 -25 105 0 105 0 0 25 0 25 -105 0 -105 0 0 -25z"/>
<path d="M14300 9485 l0 -25 106 0 c104 0 105 0 102 23 -3 21 -8 22 -105 25
l-103 3 0 -26z"/>
<path d="M14717 9503 c-4 -3 -7 -15 -7 -25 0 -16 10 -18 105 -18 l105 0 0 25
c0 25 0 25 -98 25 -54 0 -102 -3 -105 -7z"/>
<path d="M15130 9485 l0 -25 106 0 c104 0 105 0 102 23 -3 21 -8 22 -105 25
l-103 3 0 -26z"/>
<path d="M15547 9503 c-4 -3 -7 -15 -7 -25 0 -16 10 -18 105 -18 l105 0 0 25
c0 25 0 25 -98 25 -54 0 -102 -3 -105 -7z"/>
<path d="M15960 9485 l0 -25 106 0 c104 0 105 0 102 23 -3 21 -8 22 -105 25
l-103 3 0 -26z"/>
<path d="M16377 9503 c-4 -3 -7 -15 -7 -25 0 -16 10 -18 105 -18 l105 0 0 25
c0 25 0 25 -98 25 -54 0 -102 -3 -105 -7z"/>
<path d="M16790 9485 l0 -25 106 0 c104 0 105 0 102 23 -3 21 -8 22 -105 25
l-103 3 0 -26z"/>
<path d="M17207 9503 c-4 -3 -7 -15 -7 -25 0 -16 10 -18 105 -18 l105 0 0 25
c0 25 0 25 -98 25 -54 0 -102 -3 -105 -7z"/>
<path d="M17620 9485 l0 -25 106 0 c104 0 105 0 102 23 -3 21 -8 22 -105 25
l-103 3 0 -26z"/>
<path d="M18037 9503 c-4 -3 -7 -15 -7 -25 0 -16 10 -18 105 -18 l105 0 0 25
c0 25 0 25 -98 25 -54 0 -102 -3 -105 -7z"/>
<path d="M18450 9485 l0 -25 106 0 c104 0 105 0 102 23 -3 21 -8 22 -105 25
l-103 3 0 -26z"/>
<path d="M18867 9503 c-4 -3 -7 -15 -7 -25 0 -16 10 -18 105 -18 l105 0 0 25
c0 25 0 25 -98 25 -54 0 -102 -3 -105 -7z"/>
<path d="M19280 9485 l0 -25 105 0 105 0 0 25 0 25 -105 0 -105 0 0 -25z"/>
<path d="M19697 9503 c-4 -3 -7 -15 -7 -25 0 -16 10 -18 105 -18 l105 0 0 25
c0 25 0 25 -98 25 -54 0 -102 -3 -105 -7z"/>
<path d="M20110 9485 l0 -25 105 0 105 0 0 25 0 25 -105 0 -105 0 0 -25z"/>
<path d="M20527 9503 c-4 -3 -7 -15 -7 -25 0 -16 10 -18 105 -18 l105 0 0 25
c0 25 0 25 -98 25 -54 0 -102 -3 -105 -7z"/>
<path d="M20940 9485 l0 -25 105 0 105 0 0 25 0 25 -105 0 -105 0 0 -25z"/>
<path d="M21357 9503 c-4 -3 -7 -15 -7 -25 0 -16 10 -18 105 -18 l105 0 0 25
c0 25 0 25 -98 25 -54 0 -102 -3 -105 -7z"/>
<path d="M21770 9485 l0 -25 105 0 105 0 0 25 0 25 -105 0 -105 0 0 -25z"/>
<path d="M22187 9503 c-4 -3 -7 -15 -7 -25 0 -16 10 -18 105 -18 l105 0 0 25
c0 25 0 25 -98 25 -54 0 -102 -3 -105 -7z"/>
<path d="M22600 9485 l0 -25 105 0 105 0 0 25 0 25 -105 0 -105 0 0 -25z"/>
<path d="M23017 9503 c-4 -3 -7 -15 -7 -25 0 -16 10 -18 105 -18 l105 0 0 25
c0 25 0 25 -98 25 -54 0 -102 -3 -105 -7z"/>
<path d="M23430 9485 l0 -25 105 0 105 0 0 25 0 25 -105 0 -105 0 0 -25z"/>
<path d="M23850 9485 l0 -25 100 0 100 0 0 25 0 25 -100 0 -100 0 0 -25z"/>
<path d="M25090 9485 l0 -25 105 0 105 0 0 25 0 25 -105 0 -105 0 0 -25z"/>
<path d="M25510 9485 l0 -25 100 0 100 0 0 25 0 25 -100 0 -100 0 0 -25z"/>
<path d="M25920 9485 l0 -25 105 0 105 0 0 25 0 25 -105 0 -105 0 0 -25z"/>
<path d="M26340 9485 l0 -25 100 0 100 0 0 25 0 25 -100 0 -100 0 0 -25z"/>
<path d="M26750 9485 l0 -25 105 0 105 0 0 25 0 25 -105 0 -105 0 0 -25z"/>
<path d="M27170 9485 l0 -25 100 0 100 0 0 25 0 25 -100 0 -100 0 0 -25z"/>
<path d="M27580 9485 l0 -25 105 0 105 0 0 25 0 25 -105 0 -105 0 0 -25z"/>
<path d="M28000 9485 l0 -25 106 0 c104 0 105 0 102 23 -3 21 -8 22 -105 25
l-103 3 0 -26z"/>
<path d="M28410 9485 l0 -25 105 0 105 0 0 25 0 25 -105 0 -105 0 0 -25z"/>
<path d="M28830 9485 l0 -25 106 0 c104 0 105 0 102 23 -3 21 -8 22 -105 25
l-103 3 0 -26z"/>
<path d="M29240 9485 l0 -25 105 0 105 0 0 25 0 25 -105 0 -105 0 0 -25z"/>
<path d="M29660 9485 l0 -25 106 0 c104 0 105 0 102 23 -3 21 -8 22 -105 25
l-103 3 0 -26z"/>
<path d="M2370 9415 l0 -55 -290 0 c-251 0 -290 -2 -290 -15 0 -8 -7 -15 -15
-15 -13 0 -15 -503 -15 -4465 0 -3962 2 -4465 15 -4465 8 0 15 -7 15 -15 0
-13 39 -15 290 -15 l290 0 0 -55 c0 -31 4 -55 10 -55 6 0 38 14 71 31 76 38
284 109 322 109 l27 0 0 4465 0 4465 -27 0 c-38 0 -246 71 -322 109 -33 17
-65 31 -71 31 -6 0 -10 -24 -10 -55z m380 -980 c0 -551 -4 -885 -9 -885 -26 0
-187 57 -270 96 -52 24 -96 44 -97 44 -2 0 -4 -25 -4 -55 l0 -55 -270 0 -270
0 0 855 0 855 270 0 270 0 0 -55 c0 -30 2 -55 4 -55 2 0 41 18 88 40 79 37
247 98 276 99 9 1 12 -182 12 -884z m0 -1789 l0 -885 -52 16 c-90 26 -191 64
-250 94 -32 16 -62 29 -68 29 -6 0 -10 -24 -10 -55 l0 -55 -270 0 -270 0 0
860 0 860 270 0 270 0 0 -55 c0 -30 4 -55 9 -55 4 0 44 16 87 36 94 44 230 92
262 93 l22 1 0 -884z m0 -1781 c0 -551 -4 -885 -9 -885 -26 0 -187 57 -270 96
-52 24 -96 44 -97 44 -2 0 -4 -25 -4 -55 l0 -55 -270 0 -270 0 0 855 0 855
270 0 270 0 0 -55 c0 -30 2 -55 4 -55 2 0 41 18 87 39 82 39 252 100 277 101
9 0 12 -184 12 -885z m-2 -2230 l-3 -444 -116 39 c-65 21 -144 52 -178 69 -33
17 -65 31 -71 31 -6 0 -10 -24 -10 -55 l0 -55 -270 0 -270 0 0 860 0 860 270
0 270 0 0 -55 c0 -30 4 -55 9 -55 4 0 44 16 87 37 43 20 124 51 179 69 l100
33 3 -445 c1 -244 1 -644 0 -889z m2 -1341 l0 -886 -32 7 c-49 10 -215 73
-280 106 -32 16 -60 29 -63 29 -3 0 -5 -25 -5 -55 l0 -55 -270 0 -270 0 0 855
0 855 270 0 270 0 0 -55 c0 -30 2 -55 4 -55 2 0 43 19 92 42 84 39 244 97 272
98 9 0 12 -184 12 -886z"/>
<path d="M24950 8740 l0 -490 -55 0 c-30 0 -55 -3 -55 -6 0 -4 9 -21 19 -38
27 -43 77 -173 105 -268 l23 -80 33 104 c18 57 52 145 75 196 l44 92 -60 0
-59 0 0 490 0 490 -35 0 -35 0 0 -490z"/>
<path d="M24430 8965 l0 -105 25 0 25 0 0 105 0 105 -25 0 -25 0 0 -105z"/>
<path d="M24432 8548 c3 -95 4 -103 23 -103 19 0 20 8 23 103 l3 102 -26 0
-26 0 3 -102z"/>
<path d="M24430 8135 l0 -105 25 0 25 0 0 105 0 105 -25 0 -25 0 0 -105z"/>
<path d="M24432 7718 c3 -95 4 -103 23 -103 19 0 20 8 23 103 l3 102 -26 0
-26 0 3 -102z"/>
<path d="M24430 7305 l0 -105 25 0 25 0 0 105 0 105 -25 0 -25 0 0 -105z"/>
<path d="M24957 7383 c-4 -3 -7 -226 -7 -495 l0 -488 -55 0 -55 0 29 -57 c36
-73 97 -236 106 -286 9 -48 17 -39 39 45 10 36 40 117 67 180 27 62 49 114 49
116 0 1 -25 2 -55 2 l-55 0 0 495 0 495 -28 0 c-16 0 -32 -3 -35 -7z"/>
<path d="M24432 6888 c3 -95 4 -103 23 -103 19 0 20 8 23 103 l3 102 -26 0
-26 0 3 -102z"/>
<path d="M24430 6475 l0 -105 25 0 25 0 0 105 0 105 -25 0 -25 0 0 -105z"/>
<path d="M24432 6058 c3 -95 4 -103 23 -103 19 0 20 8 23 103 l3 102 -26 0
-26 0 3 -102z"/>
<path d="M24430 5645 l0 -105 25 0 25 0 0 105 0 105 -25 0 -25 0 0 -105z"/>
<path d="M24950 5050 l0 -490 -55 0 -55 0 20 -39 c31 -62 79 -188 104 -273
l22 -78 41 123 c22 68 57 155 76 195 l36 72 -60 0 -59 0 0 490 0 490 -35 0
-35 0 0 -490z"/>
<path d="M1230 5290 c0 -22 5 -40 10 -40 6 0 10 7 10 16 0 14 7 16 43 11 66
-9 103 -25 89 -39 -7 -7 -12 -26 -12 -42 0 -93 136 -171 208 -120 38 27 46 61
22 105 -11 22 -15 39 -10 39 14 0 28 40 22 63 -3 11 -20 25 -38 33 -40 17 -44
17 -44 4 0 -5 6 -10 14 -10 8 0 24 -9 37 -19 19 -15 21 -22 12 -32 -9 -9 -48
-3 -177 30 -91 22 -170 41 -176 41 -5 0 -10 -18 -10 -40z m270 -65 c89 -23
132 -97 69 -119 -55 -19 -189 43 -189 88 0 20 28 46 48 46 9 0 42 -7 72 -15z"/>
<path d="M24432 5228 c3 -95 4 -103 23 -103 19 0 20 8 23 103 l3 102 -26 0
-26 0 3 -102z"/>
<path d="M25410 5290 c0 -22 5 -40 10 -40 6 0 10 7 10 15 0 18 22 19 89 3 50
-11 61 -20 41 -33 -17 -10 -11 -68 10 -99 57 -88 192 -102 220 -23 8 25 7 37
-10 69 -11 21 -15 38 -10 38 16 0 32 39 25 61 -4 12 -22 27 -41 35 -40 17 -44
17 -44 4 0 -5 6 -10 14 -10 8 0 24 -9 37 -19 18 -15 21 -22 13 -31 -9 -9 -52
-2 -179 29 -91 23 -171 41 -176 41 -5 0 -9 -18 -9 -40z m270 -65 c84 -22 130
-88 79 -116 -42 -22 -161 17 -184 62 -18 35 -18 34 1 53 19 20 34 20 104 1z"/>
<path d="M1242 5019 c-39 -8 -78 -41 -86 -74 -7 -28 8 -72 35 -101 20 -21 20
-21 0 -27 -24 -6 -44 -51 -35 -79 7 -23 86 -61 112 -55 12 3 9 7 -13 15 -54
21 -80 37 -83 54 -6 31 34 28 199 -12 255 -63 239 -57 239 -85 0 -14 5 -25 10
-25 6 0 10 33 10 80 0 47 -4 80 -10 80 -5 0 -10 -11 -10 -25 0 -30 -19 -32
-101 -9 -56 16 -57 16 -38 35 85 85 -89 258 -229 228z m132 -80 c60 -22 109
-70 104 -102 -2 -11 -15 -29 -30 -40 l-26 -20 -94 23 c-101 25 -141 53 -154
105 -6 23 -2 32 17 48 29 23 98 18 183 -14z"/>
<path d="M25422 5019 c-39 -8 -78 -41 -86 -74 -7 -29 8 -72 36 -102 l20 -21
-22 -7 c-27 -9 -42 -48 -30 -79 9 -25 87 -62 112 -53 8 3 1 9 -17 16 -53 19
-80 36 -83 53 -6 31 34 28 199 -12 256 -63 239 -57 239 -86 0 -14 5 -24 11
-22 15 5 16 151 1 156 -7 2 -12 -7 -12 -22 0 -31 -8 -32 -97 -10 -50 13 -61
19 -49 26 41 23 38 97 -5 152 -45 57 -152 99 -217 85z m132 -80 c60 -22 109
-70 104 -102 -2 -11 -14 -29 -28 -39 -25 -19 -27 -18 -120 4 -71 17 -100 30
-122 51 -41 41 -47 76 -17 100 29 23 98 18 183 -14z"/>
<path d="M24430 4815 l0 -105 25 0 25 0 0 105 0 105 -25 0 -25 0 0 -105z"/>
<path d="M24432 4398 c3 -95 4 -103 23 -103 19 0 20 8 23 103 l3 102 -26 0
-26 0 3 -102z"/>
<path d="M24430 3985 l0 -105 25 0 25 0 0 105 0 105 -25 0 -25 0 0 -105z"/>
<path d="M24957 3693 c-4 -3 -7 -224 -7 -490 l0 -483 -55 0 c-30 0 -55 -2 -55
-5 0 -3 16 -37 36 -76 37 -74 104 -264 104 -294 0 -33 14 -5 37 74 12 44 41
121 63 172 61 139 62 129 -4 129 l-56 0 0 490 0 490 -28 0 c-16 0 -32 -3 -35
-7z"/>
<path d="M24432 3568 c3 -95 4 -103 23 -103 19 0 20 8 23 103 l3 102 -26 0
-26 0 3 -102z"/>
<path d="M24430 3155 l0 -105 25 0 25 0 0 105 0 105 -25 0 -25 0 0 -105z"/>
<path d="M24432 2738 c3 -95 4 -103 23 -103 19 0 20 8 23 103 l3 102 -26 0
-26 0 3 -102z"/>
<path d="M24430 2325 l0 -105 25 0 25 0 0 105 0 105 -25 0 -25 0 0 -105z"/>
<path d="M24432 1908 c3 -95 4 -103 23 -103 19 0 20 8 23 103 l3 102 -26 0
-26 0 3 -102z"/>
<path d="M4170 1896 l0 -106 25 0 26 0 -3 103 c-3 97 -4 102 -25 105 -23 3
-23 2 -23 -102z"/>
<path d="M24950 1360 l0 -490 -54 0 -55 0 39 -82 c41 -89 100 -261 100 -292 0
-32 9 -12 30 63 22 77 91 251 116 289 14 22 14 22 -46 22 l-60 0 0 490 0 490
-35 0 -35 0 0 -490z"/>
<path d="M24430 1495 l0 -105 25 0 25 0 0 105 0 105 -25 0 -25 0 0 -105z"/>
<path d="M4170 1475 l0 -105 25 0 25 0 0 105 0 105 -25 0 -25 0 0 -105z"/>
<path d="M24430 1075 l0 -105 25 0 25 0 0 105 0 105 -25 0 -25 0 0 -105z"/>
<path d="M4170 1066 l0 -106 25 0 26 0 -3 103 c-3 97 -4 102 -25 105 -23 3
-23 2 -23 -102z"/>
</g>
</svg>
